<svg width="117" height="117" viewBox="0 0 117 117" fill="none" xmlns="http://www.w3.org/2000/svg">
<path d="M7.512 90.248C9.272 90.248 10.816 90.592 12.144 91.28C13.488 91.968 14.52 92.952 15.24 94.232C15.976 95.496 16.344 96.968 16.344 98.648C16.344 100.328 15.976 101.8 15.24 103.064C14.52 104.312 13.488 105.28 12.144 105.968C10.816 106.656 9.272 107 7.512 107H1.656V90.248H7.512ZM7.392 104.144C9.152 104.144 10.512 103.664 11.472 102.704C12.432 101.744 12.912 100.392 12.912 98.648C12.912 96.904 12.432 95.544 11.472 94.568C10.512 93.576 9.152 93.08 7.392 93.08H5.016V104.144H7.392ZM27.1151 107.168C25.5471 107.168 24.1071 106.8 22.7951 106.064C21.4831 105.328 20.4431 104.312 19.6751 103.016C18.9071 101.704 18.5231 100.224 18.5231 98.576C18.5231 96.944 18.9071 95.48 19.6751 94.184C20.4431 92.872 21.4831 91.848 22.7951 91.112C24.1071 90.376 25.5471 90.008 27.1151 90.008C28.6991 90.008 30.1391 90.376 31.4351 91.112C32.7471 91.848 33.7791 92.872 34.5311 94.184C35.2991 95.48 35.6831 96.944 35.6831 98.576C35.6831 100.224 35.2991 101.704 34.5311 103.016C33.7791 104.312 32.7471 105.328 31.4351 106.064C30.1231 106.8 28.6831 107.168 27.1151 107.168ZM27.1151 104.168C28.1231 104.168 29.0111 103.944 29.7791 103.496C30.5471 103.032 31.1471 102.376 31.5791 101.528C32.0111 100.68 32.2271 99.696 32.2271 98.576C32.2271 97.456 32.0111 96.48 31.5791 95.648C31.1471 94.8 30.5471 94.152 29.7791 93.704C29.0111 93.256 28.1231 93.032 27.1151 93.032C26.1071 93.032 25.2111 93.256 24.4271 93.704C23.6591 94.152 23.0591 94.8 22.6271 95.648C22.1951 96.48 21.9791 97.456 21.9791 98.576C21.9791 99.696 22.1951 100.68 22.6271 101.528C23.0591 102.376 23.6591 103.032 24.4271 103.496C25.2111 103.944 26.1071 104.168 27.1151 104.168ZM42.0229 92.96V97.16H47.6629V99.824H42.0229V104.264H48.3829V107H38.6629V90.224H48.3829V92.96H42.0229Z" fill="#2763F5"/>
<path d="M73.1631 90.248L67.0191 107H62.9391L56.7951 90.248H60.3951L65.0031 103.568L69.5871 90.248H73.1631ZM79.0176 90.248V107H75.6576V90.248H79.0176ZM88.6732 90.248C90.4332 90.248 91.9772 90.592 93.3052 91.28C94.6492 91.968 95.6812 92.952 96.4012 94.232C97.1372 95.496 97.5052 96.968 97.5052 98.648C97.5052 100.328 97.1372 101.8 96.4012 103.064C95.6812 104.312 94.6492 105.28 93.3052 105.968C91.9772 106.656 90.4332 107 88.6732 107H82.8172V90.248H88.6732ZM88.5532 104.144C90.3132 104.144 91.6732 103.664 92.6332 102.704C93.5932 101.744 94.0732 100.392 94.0732 98.648C94.0732 96.904 93.5932 95.544 92.6332 94.568C91.6732 93.576 90.3132 93.08 88.5532 93.08H86.1772V104.144H88.5532ZM110.772 103.808H104.1L102.996 107H99.4684L105.492 90.224H109.404L115.428 107H111.876L110.772 103.808ZM109.86 101.12L107.436 94.112L105.012 101.12H109.86Z" fill="#19B078"/>
<path d="M71.346 30.0622H63.6632V22.3795H55.8546V30.0622H48.1719V37.863H55.8546V45.5457H63.6632V37.863H71.346V30.0622Z" fill="url(#paint0_linear_341:1475)"/>
<path style="mix-blend-mode:screen" opacity="0.39" d="M67.5634 37.863H71.3459V30.0622H63.6552V22.3795H55.8545V25.7058C58.2922 30.8329 62.6094 34.9298 67.5634 37.863Z" fill="url(#paint1_linear_341:1475)"/>
<path d="M70.0802 51.0267C68.3266 51.8839 59.8575 51.0267 59.7552 52.0411C59.4957 54.9664 65.2598 55.973 66.8325 56.2875C73.3279 57.6086 78.51 53.7476 86.0984 46.6074C93.962 39.2391 99.9463 28.2222 99.2464 18.2983C98.2634 4.29316 85.6895 -2.82343 74.4995 1.04547C69.1463 2.81632 64.363 5.98438 60.6438 10.2223C60.4423 10.4567 60.1925 10.6448 59.9116 10.7738C59.6306 10.9027 59.3252 10.9695 59.016 10.9695C58.7069 10.9695 58.4015 10.9027 58.1205 10.7738C57.8396 10.6448 57.5898 10.4567 57.3883 10.2223C53.6676 5.98611 48.8848 2.81839 43.5326 1.04547C32.3426 -2.82343 19.8551 4.67061 17.4646 17.8972C14.5865 33.8132 25.2889 52.1748 43.7763 63.5928C48.4001 66.4395 62.5075 71.6059 69.6162 69.5141C74.2558 68.1459 86.0119 58.8589 84.7301 57.5771C81.506 54.3688 73.8154 62.4133 68.0514 62.0201C62.649 61.6505 59.0868 60.6675 57.2389 57.9703C54.2507 53.5746 54.8798 47.8105 53.4093 48.2981C49.9178 47.1264 52.2769 56.0831 49.328 54.298C36.8406 46.7568 29.5825 34.4738 31.5091 23.8028C33.0818 15.0427 41.3543 10.0808 48.7619 12.6443C52.0494 13.7496 55.0183 15.6389 57.4119 18.1489C57.6134 18.3641 57.857 18.5357 58.1275 18.653C58.398 18.7702 58.6897 18.8308 58.9846 18.8308C59.2794 18.8308 59.5712 18.7702 59.8417 18.653C60.1122 18.5357 60.3558 18.3641 60.5573 18.1489C62.9499 15.6377 65.9191 13.7482 69.2073 12.6443C76.6227 10.0808 84.8795 15.0427 86.5073 23.8028C87.7419 30.6206 85.2019 38.0989 79.9648 44.5707C77.7079 43.7136 72.7066 40.7647 71.244 42.998C70.3633 44.3662 73.3672 45.3571 73.7446 46.3951C74.3108 48.0071 71.4013 50.3819 70.0802 51.0267Z" fill="url(#paint2_linear_341:1475)"/>
<path style="mix-blend-mode:screen" opacity="0.48" d="M69.2548 65.6452C74.1931 64.8589 79.5247 59.5588 84.8012 57.7108C84.7888 57.6612 84.7645 57.6153 84.7304 57.5772C81.5063 54.3688 73.8157 62.4133 68.0516 62.0201C62.6493 61.6505 59.0871 60.6676 57.2391 57.9703C54.2509 53.5746 54.88 47.8105 53.4095 48.2981C49.9181 47.1264 52.2772 56.0831 49.3283 54.298C36.8409 46.7568 29.5827 34.4738 31.5093 23.8028C33.082 15.0428 41.3546 10.0808 48.7621 12.6443C50.4825 13.2287 52.125 14.0209 53.6533 15.0034C48.1488 10.9458 42.7386 7.53298 35.7557 9.3023C31.2341 10.4504 26.8226 15.2551 25.8318 19.8396C20.4216 44.8223 50.8696 68.5784 69.2548 65.6452Z" fill="url(#paint3_linear_341:1475)"/>
<path style="mix-blend-mode:screen" opacity="0.48" d="M99.2467 18.2983C98.2638 4.29316 85.6898 -2.82343 74.4999 1.04547C71.2769 2.15306 68.241 3.74394 65.496 5.76365C65.496 6.00743 74.9796 2.36656 80.6099 3.84493C91.7055 6.73875 94.2769 17.103 92.7278 27.0033C91.3595 35.7162 81.6401 50.0438 70.3086 54.0857C68.0202 54.872 62.6651 53.8183 60.597 51.648C60.0858 51.7266 59.8106 51.8524 59.7556 52.0411C59.4961 54.9664 65.2601 55.973 66.8328 56.2875C73.3282 57.6086 78.5103 53.7476 86.0987 46.6074C93.9388 39.2391 99.9466 28.2222 99.2467 18.2983Z" fill="url(#paint4_linear_341:1475)"/>
<defs>
<linearGradient id="paint0_linear_341:1475" x1="52.0172" y1="41.7004" x2="67.5007" y2="26.2169" gradientUnits="userSpaceOnUse">
<stop stop-color="#0076C1"/>
<stop offset="0.27" stop-color="#1897D9"/>
<stop offset="0.56" stop-color="#2CB3EE"/>
<stop offset="0.81" stop-color="#38C4FB"/>
<stop offset="1" stop-color="#3CCAFF"/>
</linearGradient>
<linearGradient id="paint1_linear_341:1475" x1="52.017" y1="41.7004" x2="67.5005" y2="26.2169" gradientUnits="userSpaceOnUse">
<stop stop-color="#0076C1"/>
<stop offset="0.27" stop-color="#1897D9"/>
<stop offset="0.56" stop-color="#2CB3EE"/>
<stop offset="0.81" stop-color="#38C4FB"/>
<stop offset="1" stop-color="#3CCAFF"/>
</linearGradient>
<linearGradient id="paint2_linear_341:1475" x1="26.7044" y1="59.7554" x2="88.1429" y2="-1.6832" gradientUnits="userSpaceOnUse">
<stop stop-color="#009D6D"/>
<stop offset="1" stop-color="#79E283"/>
</linearGradient>
<linearGradient id="paint3_linear_341:1475" x1="1136.21" y1="4433.86" x2="5243.49" y2="144.047" gradientUnits="userSpaceOnUse">
<stop stop-color="#009D6D"/>
<stop offset="1" stop-color="#79E283"/>
</linearGradient>
<linearGradient id="paint4_linear_341:1475" x1="938.267" y1="4854.88" x2="5088.29" y2="1951.76" gradientUnits="userSpaceOnUse">
<stop stop-color="#009D6D"/>
<stop offset="1" stop-color="#79E283"/>
</linearGradient>
</defs>
</svg>
