<svg width="138" height="30" viewBox="0 0 138 30" fill="none" xmlns="http://www.w3.org/2000/svg">
<path d="M55.634 9.436C56.954 9.436 58.112 9.694 59.108 10.21C60.116 10.726 60.89 11.464 61.43 12.424C61.982 13.372 62.258 14.476 62.258 15.736C62.258 16.996 61.982 18.1 61.43 19.048C60.89 19.984 60.116 20.71 59.108 21.226C58.112 21.742 56.954 22 55.634 22H51.242V9.436H55.634ZM55.544 19.858C56.864 19.858 57.884 19.498 58.604 18.778C59.324 18.058 59.684 17.044 59.684 15.736C59.684 14.428 59.324 13.408 58.604 12.676C57.884 11.932 56.864 11.56 55.544 11.56H53.762V19.858H55.544ZM70.3363 22.126C69.1603 22.126 68.0803 21.85 67.0963 21.298C66.1123 20.746 65.3323 19.984 64.7563 19.012C64.1803 18.028 63.8923 16.918 63.8923 15.682C63.8923 14.458 64.1803 13.36 64.7563 12.388C65.3323 11.404 66.1123 10.636 67.0963 10.084C68.0803 9.532 69.1603 9.256 70.3363 9.256C71.5243 9.256 72.6043 9.532 73.5763 10.084C74.5603 10.636 75.3343 11.404 75.8983 12.388C76.4743 13.36 76.7623 14.458 76.7623 15.682C76.7623 16.918 76.4743 18.028 75.8983 19.012C75.3343 19.984 74.5603 20.746 73.5763 21.298C72.5923 21.85 71.5123 22.126 70.3363 22.126ZM70.3363 19.876C71.0923 19.876 71.7583 19.708 72.3343 19.372C72.9103 19.024 73.3603 18.532 73.6843 17.896C74.0083 17.26 74.1703 16.522 74.1703 15.682C74.1703 14.842 74.0083 14.11 73.6843 13.486C73.3603 12.85 72.9103 12.364 72.3343 12.028C71.7583 11.692 71.0923 11.524 70.3363 11.524C69.5803 11.524 68.9083 11.692 68.3203 12.028C67.7443 12.364 67.2943 12.85 66.9703 13.486C66.6463 14.11 66.4843 14.842 66.4843 15.682C66.4843 16.522 66.6463 17.26 66.9703 17.896C67.2943 18.532 67.7443 19.024 68.3203 19.372C68.9083 19.708 69.5803 19.876 70.3363 19.876ZM81.5172 11.47V14.62H85.7472V16.618H81.5172V19.948H86.2872V22H78.9972V9.418H86.2872V11.47H81.5172Z" fill="#2763F5"/>
<path d="M104.872 9.436L100.264 22H97.2043L92.5963 9.436H95.2963L98.7523 19.426L102.19 9.436H104.872ZM109.263 9.436V22H106.743V9.436H109.263ZM116.505 9.436C117.825 9.436 118.983 9.694 119.979 10.21C120.987 10.726 121.761 11.464 122.301 12.424C122.853 13.372 123.129 14.476 123.129 15.736C123.129 16.996 122.853 18.1 122.301 19.048C121.761 19.984 120.987 20.71 119.979 21.226C118.983 21.742 117.825 22 116.505 22H112.113V9.436H116.505ZM116.415 19.858C117.735 19.858 118.755 19.498 119.475 18.778C120.195 18.058 120.555 17.044 120.555 15.736C120.555 14.428 120.195 13.408 119.475 12.676C118.755 11.932 117.735 11.56 116.415 11.56H114.633V19.858H116.415ZM133.079 19.606H128.075L127.247 22H124.601L129.119 9.418H132.053L136.571 22H133.907L133.079 19.606ZM132.395 17.59L130.577 12.334L128.759 17.59H132.395Z" fill="#19B078"/>
<path d="M23.2913 12.8837H19.9987V9.59106H16.6521V12.8837H13.3595V16.2268H16.6521V19.5195H19.9987V16.2268H23.2913V12.8837Z" fill="url(#paint0_linear_152:880)"/>
<path style="mix-blend-mode:screen" opacity="0.39" d="M21.6702 16.2268H23.2913V12.8837H19.9953V9.59106H16.6521V11.0166C17.6968 13.214 19.547 14.9698 21.6702 16.2268Z" fill="url(#paint1_linear_152:880)"/>
<path d="M22.7486 21.8686C21.9971 22.2359 18.3675 21.8686 18.3237 22.3033C18.2125 23.557 20.6828 23.9884 21.3568 24.1232C24.1405 24.6894 26.3614 23.0347 29.6136 19.9746C32.9837 16.8168 35.5484 12.0952 35.2485 7.84212C34.8272 1.83992 29.4384 -1.21004 24.6427 0.44806C22.3484 1.20699 20.2984 2.56473 18.7045 4.381C18.6181 4.48145 18.5111 4.56206 18.3907 4.61733C18.2703 4.67259 18.1394 4.7012 18.0069 4.7012C17.8744 4.7012 17.7435 4.67259 17.6231 4.61733C17.5027 4.56206 17.3956 4.48145 17.3093 4.381C15.7147 2.56548 13.6649 1.20788 11.3711 0.44806C6.5754 -1.21004 1.22363 2.00169 0.199115 7.67025C-1.03435 14.4914 3.55239 22.3606 11.4756 27.2541C13.4572 28.4741 19.5032 30.6882 22.5498 29.7918C24.5382 29.2054 29.5765 25.2252 29.0272 24.6759C27.6454 23.3009 24.3495 26.7485 21.8792 26.58C19.5639 26.4216 18.0372 26.0004 17.2452 24.8444C15.9646 22.9605 16.2342 20.4902 15.604 20.6992C14.1076 20.197 15.1187 24.0356 13.8549 23.2706C8.50311 20.0386 5.39248 14.7745 6.21817 10.2012C6.89219 6.44689 10.4376 4.32034 13.6122 5.419C15.0212 5.89269 16.2935 6.70238 17.3194 7.77809C17.4057 7.87033 17.5101 7.94386 17.6261 7.99412C17.742 8.04439 17.867 8.07033 17.9934 8.07033C18.1198 8.07033 18.2448 8.04439 18.3607 7.99412C18.4767 7.94386 18.581 7.87033 18.6674 7.77809C19.6928 6.70186 20.9653 5.89208 22.3746 5.419C25.5526 4.32034 29.0912 6.44689 29.7888 10.2012C30.318 13.1231 29.2294 16.3281 26.9849 19.1017C26.0177 18.7344 23.8743 17.4706 23.2474 18.4277C22.87 19.0141 24.1574 19.4387 24.3191 19.8836C24.5618 20.5745 23.3148 21.5922 22.7486 21.8686Z" fill="url(#paint2_linear_152:880)"/>
<path style="mix-blend-mode:screen" opacity="0.48" d="M22.3948 28.1336C24.5112 27.7966 26.7962 25.5251 29.0575 24.7331C29.0522 24.7119 29.0418 24.6922 29.0272 24.6758C27.6454 23.3008 24.3495 26.7485 21.8792 26.58C19.5639 26.4216 18.0372 26.0003 17.2452 24.8444C15.9646 22.9604 16.2342 20.4901 15.604 20.6991C14.1076 20.1969 15.1187 24.0355 13.8549 23.2705C8.50312 20.0385 5.39249 14.7744 6.21817 10.2011C6.89219 6.44682 10.4376 4.32027 13.6122 5.41893C14.3495 5.66935 15.0535 6.00888 15.7084 6.42997C13.3494 4.69098 11.0307 3.22834 8.03804 3.98662C6.10021 4.47866 4.20957 6.53781 3.78493 8.5026C1.46629 19.2095 14.5154 29.3907 22.3948 28.1336Z" fill="url(#paint3_linear_152:880)"/>
<path style="mix-blend-mode:screen" opacity="0.48" d="M35.2484 7.84212C34.8272 1.83992 29.4383 -1.21004 24.6426 0.44806C23.2614 0.922738 21.9603 1.60455 20.7838 2.47014C20.7838 2.57461 24.8482 1.01424 27.2612 1.64783C32.0165 2.88803 33.1185 7.32986 32.4546 11.5729C31.8682 15.307 27.7027 21.4473 22.8464 23.1796C21.8657 23.5166 19.5706 23.065 18.6842 22.1348C18.4652 22.1685 18.3472 22.2225 18.3236 22.3033C18.2124 23.557 20.6827 23.9884 21.3568 24.1232C24.1405 24.6894 26.3614 23.0347 29.6136 19.9746C32.9736 16.8168 35.5484 12.0952 35.2484 7.84212Z" fill="url(#paint4_linear_152:880)"/>
<defs>
<linearGradient id="paint0_linear_152:880" x1="15.0075" y1="17.8715" x2="21.6433" y2="11.2357" gradientUnits="userSpaceOnUse">
<stop stop-color="#0076C1"/>
<stop offset="0.27" stop-color="#1897D9"/>
<stop offset="0.56" stop-color="#2CB3EE"/>
<stop offset="0.81" stop-color="#38C4FB"/>
<stop offset="1" stop-color="#3CCAFF"/>
</linearGradient>
<linearGradient id="paint1_linear_152:880" x1="15.0075" y1="17.8715" x2="21.6433" y2="11.2357" gradientUnits="userSpaceOnUse">
<stop stop-color="#0076C1"/>
<stop offset="0.27" stop-color="#1897D9"/>
<stop offset="0.56" stop-color="#2CB3EE"/>
<stop offset="0.81" stop-color="#38C4FB"/>
<stop offset="1" stop-color="#3CCAFF"/>
</linearGradient>
<linearGradient id="paint2_linear_152:880" x1="4.15902" y1="25.6094" x2="30.4898" y2="-0.721373" gradientUnits="userSpaceOnUse">
<stop stop-color="#009D6D"/>
<stop offset="1" stop-color="#79E283"/>
</linearGradient>
<linearGradient id="paint3_linear_152:880" x1="479.663" y1="1900.22" x2="2239.92" y2="61.7342" gradientUnits="userSpaceOnUse">
<stop stop-color="#009D6D"/>
<stop offset="1" stop-color="#79E283"/>
</linearGradient>
<linearGradient id="paint4_linear_152:880" x1="394.828" y1="2080.66" x2="2173.41" y2="836.469" gradientUnits="userSpaceOnUse">
<stop stop-color="#009D6D"/>
<stop offset="1" stop-color="#79E283"/>
</linearGradient>
</defs>
</svg>
